# xmcd
#
# Track frame offsets:
#       150
#       17955
#       35877
#       59338
#       79296
#       101511
#       124104
#       146813
#       162764
#       179795
#       200309
#       220510
#       237952
#       255496
#       274247
#       290565
#       307582
#       327036
#
# Disc length: 4572 seconds
#
# Revision: 1
# Processed by: cddbd v1.5.2PL0 Copyright (c) Steve Scherf et al.
# Submitted via: MusiCat 1.1
#
DISCID=0811da12
DTITLE=Various Artist - Rock Anthems - Disc 2
DYEAR=1900
DGENRE=
TTITLE0=Drive - cars
TTITLE1=The Final Countdown - Europe
TTITLE2=Winds of Change - The Scorpions
TTITLE3=Nothing's Gonna Stop Us Now - Starship
TTITLE4=The Way It Is - Bruce Hornsby and the Range
TTITLE5=Whole Of The Moon - The Waterboys
TTITLE6=Broken Wings - Mr Mister
TTITLE7=Private Dancer - Tina Turner
TTITLE8=Love Walked In - Thunder
TTITLE9=All I Wanna Do Is Make Love To You - Heart
TTITLE10=Total Eclipse Of The Heart - Bonnie Tyler
TTITLE11=Incommunicado - Marillion
TTITLE12=Power Of Love - Huey Lewis and the News
TTITLE13=Love Is A battlefield - Pat Benatar
TTITLE14=Centrefold - J Geils Band
TTITLE15=Eye Of The Tiger - Survivor
TTITLE16=All Right Now - Free
TTITLE17=Black Magic Woman - Santana
EXTD=Dino\nDINCD 101\n
EXTT0=
EXTT1=
EXTT2=
EXTT3=
EXTT4=
EXTT5=
EXTT6=
EXTT7=
EXTT8=
EXTT9=
EXTT10=
EXTT11=
EXTT12=
EXTT13=
EXTT14=
EXTT15=
EXTT16=
EXTT17=
PLAYORDER=
